<svg xmlns="http://www.w3.org/2000/svg" xmlns:xlink="http://www.w3.org/1999/xlink" xmlns:serif="http://www.serif.com/" width="100%" height="100%" viewBox="0 0 886 886" xml:space="preserve" style="fill-rule:evenodd;clip-rule:evenodd;stroke-linejoin:round;stroke-miterlimit:2;"><rect x="0" y="0" width="885.825" height="885.825" style="fill:#1a458c;"></rect><path d="M463.393,443.56l92.092,-113.725l-38.038,-0l-73.075,90.237l-73.071,-90.237l-38.041,-0l92.095,113.725l-92.058,113.683l38.038,-0l73.037,-90.196l73.042,90.196l38.037,-0l-92.058,-113.683Z" style="fill:#fff;fill-rule:nonzero;"></path><path d="M671.597,359.588l-0,99.092l29.891,-0l0,-99.092l63.367,-0c3.15,-0 5.7,2.554 5.7,5.7l0.004,-0l0.025,191.996l29.684,-0l-0,-209.029c-0.017,-10.042 -8.063,-18.167 -18.055,-18.384l-0.004,-0.037l-191.333,-0l-0.004,0.037c-9.992,0.217 -18.038,8.342 -18.05,18.384l-0.004,-0l-0,209.029l29.683,-0l0.029,-191.996c0,-3.146 2.55,-5.7 5.7,-5.7l63.367,-0Z" style="fill:#fff;fill-rule:nonzero;"></path><path d="M118.233,458.506l99.092,-0l-0,-29.892l-99.092,0l-0,-63.366c-0,-3.15 2.554,-5.7 5.7,-5.7l-0,-0.005l191.996,-0.025l-0,-29.683l-209.029,-0c-10.042,0.017 -18.167,8.062 -18.384,18.054l-0.037,0.004l-0,191.334l0.037,0.004c0.217,9.991 8.342,18.037 18.384,18.05l-0,0.004l209.029,0l-0,-29.683l-191.996,-0.029c-3.146,-0 -5.7,-2.551 -5.7,-5.701l-0,-63.366Z" style="fill:#fff;fill-rule:nonzero;"></path><path d="M121.661,621.789c2.009,0 3.513,-0.479 4.517,-1.433c1.004,-0.954 1.508,-2.292 1.508,-4.009c0,-3.604 -2.008,-5.408 -6.025,-5.408c-4.016,0 -6.025,1.804 -6.025,5.408c0,3.63 2.009,5.442 6.025,5.442m5.517,5.046l-11.067,-0l0,40.571l11.067,-0l-0,-40.571Zm47.575,14.117c-0,-4.817 -1.221,-8.5 -3.667,-11.05c-2.441,-2.555 -6.021,-3.83 -10.737,-3.83c-2.759,0 -5.221,0.5 -7.388,1.505c-2.166,1.004 -3.862,2.487 -5.1,4.445l-0.616,0l-1.488,-5.187l-8.454,-0l-0,40.571l11.067,-0l-0,-19.088c-0,-4.791 0.691,-8.221 2.07,-10.291c1.38,-2.067 3.617,-3.1 6.713,-3.1c2.275,-0 3.933,0.729 4.971,2.195c1.041,1.463 1.562,3.659 1.562,6.584l0,23.7l11.067,-0l-0,-26.454Zm58.462,-6.317l0,-7.113l-30.775,13.717l0,5.3l30.775,13.754l0,-7.112l-22.208,-8.567l-1.925,-0.654l1.925,-0.617l22.208,-8.708Zm23.934,26.8c-1.413,-0.833 -2.55,-1.925 -3.409,-3.267c-0.862,-1.341 -1.479,-2.854 -1.854,-4.537c-0.375,-1.679 -0.562,-3.379 -0.562,-5.096l-0,-1.525c-0,-1.692 0.187,-3.375 0.562,-5.046c0.375,-1.667 1,-3.175 1.871,-4.517c0.871,-1.341 2.013,-2.429 3.429,-3.266c1.417,-0.834 3.163,-1.25 5.242,-1.25c1.354,-0 2.621,0.229 3.796,0.687c1.171,0.463 2.179,1.092 3.029,1.888c0.846,0.8 1.517,1.725 2.012,2.775c0.496,1.054 0.759,2.175 0.78,3.358l6.354,0c-0,-1.983 -0.4,-3.846 -1.2,-5.587c-0.796,-1.742 -1.904,-3.25 -3.321,-4.521c-1.413,-1.267 -3.096,-2.271 -5.042,-3.009c-1.95,-0.737 -4.083,-1.108 -6.408,-1.108c-2.975,0 -5.575,0.533 -7.8,1.596c-2.225,1.067 -4.083,2.5 -5.571,4.3c-1.487,1.804 -2.608,3.892 -3.358,6.262c-0.75,2.371 -1.125,4.851 -1.125,7.438l-0,1.525c-0,2.613 0.375,5.096 1.125,7.458c0.75,2.359 1.871,4.438 3.358,6.242c1.488,1.8 3.346,3.233 5.571,4.3c2.225,1.063 4.825,1.596 7.8,1.596c2.083,-0 4.079,-0.358 5.987,-1.071c1.913,-0.712 3.609,-1.671 5.084,-2.867c1.475,-1.2 2.654,-2.587 3.537,-4.175c0.884,-1.583 1.338,-3.245 1.363,-4.987l-6.354,-0c-0.021,1.087 -0.309,2.1 -0.85,3.029c-0.546,0.933 -1.267,1.742 -2.159,2.433c-0.896,0.688 -1.921,1.225 -3.066,1.613c-1.15,0.387 -2.33,0.579 -3.542,0.579c-2.104,0 -3.863,-0.417 -5.279,-1.25m29.779,-13.229c-0,2.833 0.408,5.458 1.233,7.875c0.821,2.421 2,4.525 3.538,6.317c1.533,1.791 3.412,3.191 5.625,4.208c2.212,1.017 4.712,1.525 7.491,1.525c2.759,-0 5.238,-0.508 7.442,-1.525c2.2,-1.017 4.071,-2.417 5.604,-4.208c1.538,-1.792 2.717,-3.896 3.538,-6.317c0.825,-2.417 1.237,-5.042 1.237,-7.875l0,-0.796c0,-2.833 -0.412,-5.462 -1.237,-7.892c-0.821,-2.433 -2,-4.541 -3.538,-6.333c-1.533,-1.792 -3.408,-3.2 -5.625,-4.229c-2.212,-1.029 -4.712,-1.542 -7.491,-1.542c-2.759,0 -5.238,0.513 -7.442,1.542c-2.2,1.029 -4.071,2.437 -5.604,4.229c-1.538,1.792 -2.717,3.9 -3.538,6.333c-0.825,2.43 -1.233,5.059 -1.233,7.892l-0,0.796Zm6.712,-0.796c0,-1.912 0.23,-3.746 0.688,-5.5c0.462,-1.754 1.154,-3.296 2.087,-4.625c0.934,-1.329 2.088,-2.387 3.467,-3.175c1.379,-0.787 3,-1.179 4.863,-1.179c1.862,-0 3.487,0.392 4.879,1.179c1.391,0.788 2.554,1.846 3.483,3.175c0.933,1.329 1.633,2.871 2.108,4.625c0.471,1.754 0.705,3.588 0.705,5.5l-0,0.796c-0,1.937 -0.23,3.783 -0.688,5.537c-0.462,1.755 -1.154,3.296 -2.087,4.625c-0.934,1.33 -2.092,2.384 -3.484,3.159c-1.391,0.775 -3.008,1.158 -4.846,1.158c-1.862,0 -3.495,-0.383 -4.895,-1.158c-1.405,-0.775 -2.571,-1.829 -3.505,-3.159c-0.933,-1.329 -1.625,-2.87 -2.087,-4.625c-0.458,-1.754 -0.688,-3.6 -0.688,-5.537l0,-0.796Zm37.017,0.796c0,2.808 0.375,5.425 1.125,7.858c0.75,2.434 1.8,4.542 3.154,6.334c1.359,1.791 2.996,3.191 4.921,4.208c1.921,1.017 4.067,1.525 6.438,1.525c2.42,-0 4.537,-0.413 6.354,-1.233c1.812,-0.825 3.375,-2.034 4.679,-3.63l0.292,4.138l6.166,-0l0,-55.742l-6.712,0l-0,20.359c-1.284,-1.5 -2.8,-2.642 -4.554,-3.43c-1.755,-0.787 -3.805,-1.179 -6.15,-1.179c-2.396,0 -4.563,0.496 -6.496,1.488c-1.938,0.991 -3.588,2.37 -4.954,4.137c-1.367,1.767 -2.421,3.875 -3.159,6.333c-0.737,2.455 -1.104,5.146 -1.104,8.075l0,0.759Zm6.713,-0.759c-0,-1.912 0.204,-3.733 0.616,-5.462c0.413,-1.729 1.046,-3.254 1.904,-4.575c0.859,-1.317 1.963,-2.363 3.305,-3.138c1.341,-0.774 2.958,-1.162 4.841,-1.162c2.204,0 4.042,0.517 5.517,1.542c1.475,1.029 2.65,2.341 3.521,3.937l-0,18.221c-0.434,0.846 -0.942,1.612 -1.525,2.304c-0.579,0.688 -1.246,1.279 -1.996,1.775c-0.75,0.496 -1.583,0.879 -2.504,1.146c-0.917,0.267 -1.946,0.4 -3.084,0.4c-1.862,0 -3.458,-0.383 -4.791,-1.146c-1.329,-0.762 -2.425,-1.796 -3.284,-3.1c-0.858,-1.308 -1.491,-2.821 -1.904,-4.537c-0.412,-1.717 -0.616,-3.534 -0.616,-5.446l-0,-0.758Zm60.312,20.045c1.621,-0.42 3.075,-0.983 4.354,-1.687c1.284,-0.7 2.417,-1.504 3.396,-2.413c0.979,-0.904 1.796,-1.854 2.45,-2.845l-4.104,-3.196c-1.233,1.596 -2.779,2.879 -4.642,3.846c-1.866,0.97 -3.991,1.454 -6.387,1.454c-1.817,-0 -3.471,-0.338 -4.971,-1.017c-1.5,-0.679 -2.792,-1.604 -3.867,-2.775c-1.075,-1.175 -1.925,-2.546 -2.541,-4.121c-0.617,-1.571 -0.959,-3.254 -1.034,-5.041l28.054,-0l0,-3.013c0,-2.733 -0.345,-5.275 -1.037,-7.621c-0.688,-2.346 -1.733,-4.387 -3.138,-6.116c-1.404,-1.73 -3.162,-3.084 -5.279,-4.063c-2.116,-0.979 -4.591,-1.471 -7.421,-1.471c-2.25,0 -4.445,0.459 -6.587,1.379c-2.142,0.921 -4.054,2.246 -5.733,3.975c-1.684,1.73 -3.03,3.846 -4.046,6.35c-1.017,2.505 -1.525,5.342 -1.525,8.509l-0,1.525c-0,2.733 0.458,5.262 1.379,7.583c0.917,2.325 2.2,4.333 3.846,6.025c1.646,1.692 3.625,3.013 5.933,3.954c2.308,0.946 4.846,1.417 7.604,1.417c1.909,-0 3.675,-0.213 5.296,-0.638m-1.721,-33.62c1.246,0.629 2.279,1.454 3.1,2.466c0.825,1.017 1.446,2.167 1.871,3.45c0.421,1.284 0.671,2.575 0.742,3.884l-0,0.508l-21.121,-0c0.267,-1.817 0.733,-3.417 1.4,-4.808c0.662,-1.392 1.479,-2.567 2.45,-3.521c0.967,-0.954 2.054,-1.684 3.262,-2.179c1.213,-0.496 2.492,-0.742 3.85,-0.742c1.717,-0 3.196,0.312 4.446,0.942m45.813,9.254l2.179,0.691l-2.179,0.617l-23.475,8.854l-0,6.967l32.041,-13.754l0,-5.296l-32.041,-13.721l-0,6.933l23.475,8.709Zm81.796,24.279l11.687,-40.571l-10.85,0l-4.862,17.963c-0.242,1.062 -0.642,3.112 -1.2,6.15c-0.555,3.037 -0.942,5.425 -1.159,7.166l-0.221,0c-0.025,-0.675 -0.112,-1.579 -0.27,-2.704c-0.159,-1.125 -0.334,-2.271 -0.525,-3.446c-0.196,-1.175 -0.396,-2.279 -0.6,-3.321c-0.205,-1.041 -0.359,-1.825 -0.455,-2.358l-4.754,-19.45l-12.191,0l-5.009,19.45l-0.579,3.083c-0.75,3.992 -1.175,6.909 -1.271,8.746l-0.216,0c-0.775,-5.662 -1.538,-10.1 -2.288,-13.316l-4.683,-17.963l-11.029,0l11.537,40.571l11.904,-0l7.404,-32.117l0.255,0l4.208,17.925l3.121,14.192l12.046,-0Zm39.125,-31.229c1.375,1.487 2.091,3.6 2.137,6.333l-15.529,0c0.192,-2.733 0.954,-4.846 2.283,-6.333c1.334,-1.488 3.171,-2.229 5.517,-2.229c2.346,-0 4.212,0.741 5.592,2.229m4.025,31.246c2.204,-0.471 4.27,-1.192 6.208,-2.159l-0,-8.566c-2.375,1.116 -4.646,1.925 -6.825,2.433c-2.175,0.508 -4.488,0.762 -6.929,0.762c-3.146,0 -5.592,-0.883 -7.334,-2.65c-1.741,-1.766 -2.67,-4.22 -2.791,-7.366l26.162,-0l0,-5.371c0,-5.758 -1.596,-10.271 -4.787,-13.538c-3.196,-3.262 -7.659,-4.895 -13.392,-4.895c-6,-0 -10.7,1.854 -14.1,5.57c-3.4,3.713 -5.096,8.967 -5.096,15.767c0,6.604 1.838,11.708 5.513,15.313c3.679,3.604 8.783,5.408 15.316,5.408c3.167,-0 5.855,-0.238 8.055,-0.708m47.012,-9.234c-0.883,-0.75 -1.325,-1.912 -1.325,-3.487l0,-19.559l11.358,0l0,-8.308l-11.358,0l0,-8.637l-7.075,-0l-3.192,8.562l-6.095,3.704l-0,4.679l5.295,0l0,19.559c0,4.479 1.009,7.833 3.03,10.071c2.02,2.237 5.245,3.358 9.67,3.358c4.017,-0 7.405,-0.617 10.163,-1.85l-0,-8.238c-2.708,0.846 -5.033,1.267 -6.967,1.267c-1.454,0 -2.621,-0.371 -3.504,-1.121m32.846,-30.029c-2.142,1.388 -3.842,3.221 -5.1,5.496l-0.546,-0l-1.633,-6.821l-8.379,0l-0,40.571l11.066,-0l0,-20.65c0,-3.267 0.984,-5.804 2.959,-7.621c1.97,-1.812 4.72,-2.721 8.254,-2.721c1.283,0 2.371,0.121 3.266,0.363l0.834,-10.379c-0.992,-0.217 -2.238,-0.325 -3.738,-0.325c-2.516,-0 -4.846,0.695 -6.983,2.087m53.833,39.246l0,-40.571l-11.066,0l-0,19.088c-0,4.787 -0.692,8.216 -2.067,10.287c-1.379,2.067 -3.621,3.1 -6.717,3.1c-2.275,0 -3.929,-0.729 -4.971,-2.192c-1.041,-1.466 -1.558,-3.662 -1.558,-6.587l0,-23.696l-11.071,0l0,26.454c0,4.788 1.213,8.463 3.629,11.013c2.421,2.554 6.013,3.829 10.78,3.829c2.783,-0 5.262,-0.517 7.437,-1.542c2.179,-1.029 3.858,-2.487 5.046,-4.375l0.579,0l1.488,5.192l8.491,-0Zm37.379,-17.238c-0.7,-1.454 -1.787,-2.733 -3.266,-3.845c-1.475,-1.113 -3.796,-2.313 -6.967,-3.596c-3.554,-1.425 -5.858,-2.504 -6.912,-3.229c-1.05,-0.725 -1.58,-1.584 -1.58,-2.575c0,-1.767 1.634,-2.65 4.9,-2.65c1.838,-0 3.642,0.279 5.409,0.833c1.766,0.558 3.662,1.271 5.696,2.142l3.337,-7.984c-4.621,-2.129 -9.375,-3.191 -14.258,-3.191c-5.129,-0 -9.092,0.983 -11.888,2.958c-2.791,1.971 -4.191,4.758 -4.191,8.362c-0,2.105 0.333,3.88 1,5.317c0.662,1.438 1.729,2.717 3.191,3.829c1.467,1.113 3.759,2.321 6.879,3.629c2.175,0.917 3.917,1.721 5.225,2.413c1.305,0.687 2.225,1.304 2.759,1.85c0.529,0.546 0.796,1.254 0.796,2.125c-0,2.321 -2.009,3.483 -6.021,3.483c-1.963,0 -4.229,-0.329 -6.804,-0.979c-2.58,-0.654 -4.896,-1.467 -6.95,-2.433l-0,9.146c1.812,0.775 3.762,1.358 5.841,1.758c2.079,0.4 4.596,0.6 7.55,0.6c5.754,-0 10.079,-1.088 12.971,-3.267c2.892,-2.179 4.338,-5.346 4.338,-9.508c-0,-2.008 -0.35,-3.738 -1.055,-5.188m21.796,8.021c-0.883,-0.75 -1.325,-1.912 -1.325,-3.487l0,-19.559l11.359,0l-0,-8.308l-11.359,0l0,-8.637l-7.079,-0l-3.192,8.562l-6.095,3.704l-0,4.679l5.295,0l0,19.559c0,4.479 1.013,7.833 3.034,10.071c2.016,2.237 5.241,3.358 9.671,3.358c4.012,-0 7.4,-0.617 10.158,-1.85l-0,-8.238c-2.708,0.846 -5.029,1.267 -6.967,1.267c-1.45,0 -2.616,-0.371 -3.5,-1.121" style="fill:#fff;fill-rule:nonzero;"></path></svg>